<?xml version="1.0" encoding="utf-8"?>
<!-- Generator: Adobe Illustrator 22.0.1, SVG Export Plug-In . SVG Version: 6.00 Build 0)  -->
<svg version="1.1" xmlns="http://www.w3.org/2000/svg" xmlns:xlink="http://www.w3.org/1999/xlink" x="0px" y="0px"
	 viewBox="0 0 750 500" style="enable-background:new 0 0 750 500;" xml:space="preserve">
<style type="text/css">
	.st0{display:none;}
	.st1{display:inline;fill:url(#SVGID_1_);}
	.st2{display:inline;opacity:0.7;}
	.st3{fill:none;stroke:#FFFFFF;stroke-width:0.25;stroke-miterlimit:10;}
	.st4{fill:url(#SVGID_2_);}
	.st5{fill:url(#SVGID_3_);}
	.st6{fill:none;stroke:#110151;stroke-width:1.5;stroke-linejoin:round;stroke-miterlimit:10;}
	.st7{fill:url(#SVGID_4_);stroke:#110151;stroke-width:1.5;stroke-miterlimit:10;}
	.st8{fill:url(#SVGID_5_);stroke:#110151;stroke-width:1.5;stroke-miterlimit:10;}
	.st9{fill:url(#SVGID_6_);stroke:#110151;stroke-width:1.5;stroke-miterlimit:10;}
	.st10{fill:url(#SVGID_7_);stroke:#110151;stroke-width:1.5;stroke-miterlimit:10;}
	.st11{fill:url(#SVGID_8_);stroke:#110151;stroke-width:1.5;stroke-miterlimit:10;}
	.st12{fill:url(#SVGID_9_);stroke:#110151;stroke-width:1.5;stroke-miterlimit:10;}
	.st13{fill:url(#SVGID_10_);stroke:#110151;stroke-width:1.5;stroke-miterlimit:10;}
	.st14{fill:url(#SVGID_11_);stroke:#110151;stroke-width:1.5;stroke-miterlimit:10;}
	.st15{fill:url(#SVGID_12_);stroke:#110151;stroke-width:1.5;stroke-miterlimit:10;}
	.st16{fill:url(#SVGID_13_);stroke:#110151;stroke-width:1.5;stroke-miterlimit:10;}
	.st17{fill:url(#SVGID_14_);stroke:#110151;stroke-width:1.5;stroke-miterlimit:10;}
	.st18{fill:url(#SVGID_15_);stroke:#110151;stroke-width:1.5;stroke-miterlimit:10;}
	.st19{fill:url(#SVGID_16_);stroke:#110151;stroke-width:1.5;stroke-miterlimit:10;}
	.st20{fill:url(#SVGID_17_);stroke:#110151;stroke-width:1.5;stroke-miterlimit:10;}
	.st21{fill:url(#SVGID_18_);stroke:#110151;stroke-width:1.5;stroke-miterlimit:10;}
	.st22{fill:url(#SVGID_19_);stroke:#110151;stroke-width:1.5;stroke-miterlimit:10;}
	.st23{fill:url(#SVGID_20_);stroke:#110151;stroke-width:1.5;stroke-miterlimit:10;}
	.st24{fill:url(#SVGID_21_);stroke:#110151;stroke-width:1.5;stroke-miterlimit:10;}
	.st25{fill:url(#SVGID_22_);stroke:#110151;stroke-width:1.5;stroke-miterlimit:10;}
	.st26{fill:url(#SVGID_23_);stroke:#110151;stroke-width:1.5;stroke-miterlimit:10;}
	.st27{fill:url(#SVGID_24_);stroke:#110151;stroke-width:1.5;stroke-miterlimit:10;}
	.st28{fill:url(#SVGID_25_);stroke:#110151;stroke-width:1.5;stroke-miterlimit:10;}
	.st29{fill:url(#SVGID_26_);stroke:#110151;stroke-width:1.5;stroke-miterlimit:10;}
	.st30{fill:url(#SVGID_27_);stroke:#110151;stroke-width:1.5;stroke-miterlimit:10;}
	.st31{fill:url(#SVGID_28_);stroke:#110151;stroke-width:1.5;stroke-miterlimit:10;}
	.st32{fill:url(#SVGID_29_);stroke:#110151;stroke-width:1.5;stroke-miterlimit:10;}
	.st33{fill:url(#SVGID_30_);stroke:#110151;stroke-width:1.5;stroke-miterlimit:10;}
	.st34{fill:url(#SVGID_31_);stroke:#110151;stroke-width:1.5;stroke-miterlimit:10;}
	.st35{fill:url(#SVGID_32_);stroke:#110151;stroke-width:1.5;stroke-miterlimit:10;}
	.st36{fill:url(#SVGID_33_);stroke:#110151;stroke-width:1.5;stroke-miterlimit:10;}
	.st37{fill:url(#SVGID_34_);stroke:#110151;stroke-width:1.5;stroke-miterlimit:10;}
	.st38{fill:url(#SVGID_35_);stroke:#110151;stroke-width:1.5;stroke-miterlimit:10;}
	.st39{fill:url(#SVGID_36_);stroke:#110151;stroke-width:1.5;stroke-miterlimit:10;}
	.st40{fill:url(#SVGID_37_);stroke:#110151;stroke-width:1.5;stroke-miterlimit:10;}
	.st41{fill:url(#SVGID_38_);stroke:#110151;stroke-width:1.5;stroke-miterlimit:10;}
	.st42{fill:url(#SVGID_39_);stroke:#110151;stroke-width:1.5;stroke-linejoin:round;stroke-miterlimit:10;}
	.st43{fill:url(#SVGID_40_);stroke:#110151;stroke-width:1.5;stroke-linejoin:round;stroke-miterlimit:10;}
	.st44{fill:url(#SVGID_41_);stroke:#110151;stroke-width:1.5;stroke-linejoin:round;stroke-miterlimit:10;}
	.st45{fill:url(#SVGID_42_);stroke:#110151;stroke-width:1.5;stroke-linejoin:round;stroke-miterlimit:10;}
	.st46{clip-path:url(#SVGID_44_);}
	.st47{fill:#E5E4EB;}
	.st48{fill:#FFDE3B;}
	.st49{fill:#48DDF7;}
	.st50{fill:#1BBA1A;}
	.st51{fill:#FF5CAE;}
	.st52{fill:#E03053;}
	.st53{fill:#3E3DFE;}
	.st54{fill:#201551;}
	.st55{fill:#FFFFFF;}
	.st56{fill:#2928A8;}
	.st57{fill:#841FA1;}
	.st58{fill:url(#SVGID_45_);}
	.st59{fill:url(#SVGID_46_);}
	.st60{fill:url(#SVGID_47_);}
	.st61{fill:url(#SVGID_48_);}
	.st62{fill:url(#SVGID_49_);stroke:#110151;stroke-width:1.5;stroke-linejoin:round;stroke-miterlimit:10;}
	.st63{fill:url(#SVGID_50_);}
	.st64{fill:url(#SVGID_51_);}
	.st65{fill:url(#SVGID_52_);stroke:#110151;stroke-width:1.5;stroke-linejoin:round;stroke-miterlimit:10;}
	.st66{fill:url(#SVGID_53_);stroke:#110151;stroke-width:1.5;stroke-linejoin:round;stroke-miterlimit:10;}
</style>
<g id="BACKGROUND" class="st0">
	<radialGradient id="SVGID_1_" cx="373" cy="568" r="613.0303" gradientUnits="userSpaceOnUse">
		<stop  offset="0" style="stop-color:#41E8AE"/>
		<stop  offset="0.4946" style="stop-color:#2D71D4"/>
		<stop  offset="1" style="stop-color:#4809BA"/>
	</radialGradient>
	<rect x="0" class="st1" width="750" height="500"/>
	<g class="st2">
		<line class="st3" x1="0" y1="0" x2="750" y2="0"/>
		<line class="st3" x1="0" y1="4" x2="750" y2="4"/>
		<line class="st3" x1="0" y1="8" x2="750" y2="8"/>
		<line class="st3" x1="0" y1="12" x2="750" y2="12"/>
		<line class="st3" x1="0" y1="16" x2="750" y2="16"/>
		<line class="st3" x1="0" y1="20" x2="750" y2="20"/>
		<line class="st3" x1="0" y1="24" x2="750" y2="24"/>
		<line class="st3" x1="0" y1="28" x2="750" y2="28"/>
		<line class="st3" x1="0" y1="32" x2="750" y2="32"/>
		<line class="st3" x1="0" y1="36" x2="750" y2="36"/>
		<line class="st3" x1="0" y1="40" x2="750" y2="40"/>
		<line class="st3" x1="0" y1="44" x2="750" y2="44"/>
		<line class="st3" x1="0" y1="48" x2="750" y2="48"/>
		<line class="st3" x1="0" y1="52" x2="750" y2="52"/>
		<line class="st3" x1="0" y1="56" x2="750" y2="56"/>
		<line class="st3" x1="0" y1="60" x2="750" y2="60"/>
		<line class="st3" x1="0" y1="64" x2="750" y2="64"/>
		<line class="st3" x1="0" y1="68" x2="750" y2="68"/>
		<line class="st3" x1="0" y1="72" x2="750" y2="72"/>
		<line class="st3" x1="0" y1="76" x2="750" y2="76"/>
		<line class="st3" x1="0" y1="80" x2="750" y2="80"/>
		<line class="st3" x1="0" y1="84" x2="750" y2="84"/>
		<line class="st3" x1="0" y1="88" x2="750" y2="88"/>
		<line class="st3" x1="0" y1="92" x2="750" y2="92"/>
		<line class="st3" x1="0" y1="96" x2="750" y2="96"/>
		<line class="st3" x1="0" y1="100" x2="750" y2="100"/>
		<line class="st3" x1="0" y1="104" x2="750" y2="104"/>
		<line class="st3" x1="0" y1="108" x2="750" y2="108"/>
		<line class="st3" x1="0" y1="112" x2="750" y2="112"/>
		<line class="st3" x1="0" y1="116" x2="750" y2="116"/>
		<line class="st3" x1="0" y1="120" x2="750" y2="120"/>
		<line class="st3" x1="0" y1="124" x2="750" y2="124"/>
		<line class="st3" x1="0" y1="128" x2="750" y2="128"/>
		<line class="st3" x1="0" y1="132" x2="750" y2="132"/>
		<line class="st3" x1="0" y1="136" x2="750" y2="136"/>
		<line class="st3" x1="0" y1="140" x2="750" y2="140"/>
		<line class="st3" x1="0" y1="144" x2="750" y2="144"/>
		<line class="st3" x1="0" y1="148" x2="750" y2="148"/>
		<line class="st3" x1="0" y1="152" x2="750" y2="152"/>
		<line class="st3" x1="0" y1="156" x2="750" y2="156"/>
		<line class="st3" x1="0" y1="160" x2="750" y2="160"/>
		<line class="st3" x1="0" y1="164" x2="750" y2="164"/>
		<line class="st3" x1="0" y1="168" x2="750" y2="168"/>
		<line class="st3" x1="0" y1="172" x2="750" y2="172"/>
		<line class="st3" x1="0" y1="176" x2="750" y2="176"/>
		<line class="st3" x1="0" y1="180" x2="750" y2="180"/>
		<line class="st3" x1="0" y1="184" x2="750" y2="184"/>
		<line class="st3" x1="0" y1="188" x2="750" y2="188"/>
		<line class="st3" x1="0" y1="192" x2="750" y2="192"/>
		<line class="st3" x1="0" y1="196" x2="750" y2="196"/>
		<line class="st3" x1="0" y1="200" x2="750" y2="200"/>
		<line class="st3" x1="0" y1="204" x2="750" y2="204"/>
		<line class="st3" x1="0" y1="208" x2="750" y2="208"/>
		<line class="st3" x1="0" y1="212" x2="750" y2="212"/>
		<line class="st3" x1="0" y1="216" x2="750" y2="216"/>
		<line class="st3" x1="0" y1="220" x2="750" y2="220"/>
		<line class="st3" x1="0" y1="224" x2="750" y2="224"/>
		<line class="st3" x1="0" y1="228" x2="750" y2="228"/>
		<line class="st3" x1="0" y1="232" x2="750" y2="232"/>
		<line class="st3" x1="0" y1="236" x2="750" y2="236"/>
		<line class="st3" x1="0" y1="240" x2="750" y2="240"/>
		<line class="st3" x1="0" y1="244" x2="750" y2="244"/>
		<line class="st3" x1="0" y1="248" x2="750" y2="248"/>
		<line class="st3" x1="0" y1="252" x2="750" y2="252"/>
		<line class="st3" x1="0" y1="256" x2="750" y2="256"/>
		<line class="st3" x1="0" y1="260" x2="750" y2="260"/>
		<line class="st3" x1="0" y1="264" x2="750" y2="264"/>
		<line class="st3" x1="0" y1="268" x2="750" y2="268"/>
		<line class="st3" x1="0" y1="272" x2="750" y2="272"/>
		<line class="st3" x1="0" y1="276" x2="750" y2="276"/>
		<line class="st3" x1="0" y1="280" x2="750" y2="280"/>
		<line class="st3" x1="0" y1="284" x2="750" y2="284"/>
		<line class="st3" x1="0" y1="288" x2="750" y2="288"/>
		<line class="st3" x1="0" y1="292" x2="750" y2="292"/>
		<line class="st3" x1="0" y1="296" x2="750" y2="296"/>
		<line class="st3" x1="0" y1="300" x2="750" y2="300"/>
		<line class="st3" x1="0" y1="304" x2="750" y2="304"/>
		<line class="st3" x1="0" y1="308" x2="750" y2="308"/>
		<line class="st3" x1="0" y1="312" x2="750" y2="312"/>
		<line class="st3" x1="0" y1="316" x2="750" y2="316"/>
		<line class="st3" x1="0" y1="320" x2="750" y2="320"/>
		<line class="st3" x1="0" y1="324" x2="750" y2="324"/>
		<line class="st3" x1="0" y1="328" x2="750" y2="328"/>
		<line class="st3" x1="0" y1="332" x2="750" y2="332"/>
		<line class="st3" x1="0" y1="336" x2="750" y2="336"/>
		<line class="st3" x1="0" y1="340" x2="750" y2="340"/>
		<line class="st3" x1="0" y1="344" x2="750" y2="344"/>
		<line class="st3" x1="0" y1="348" x2="750" y2="348"/>
		<line class="st3" x1="0" y1="352" x2="750" y2="352"/>
		<line class="st3" x1="0" y1="356" x2="750" y2="356"/>
		<line class="st3" x1="0" y1="360" x2="750" y2="360"/>
		<line class="st3" x1="0" y1="364" x2="750" y2="364"/>
		<line class="st3" x1="0" y1="368" x2="750" y2="368"/>
		<line class="st3" x1="0" y1="372" x2="750" y2="372"/>
		<line class="st3" x1="0" y1="376" x2="750" y2="376"/>
		<line class="st3" x1="0" y1="380" x2="750" y2="380"/>
		<line class="st3" x1="0" y1="384" x2="750" y2="384"/>
		<line class="st3" x1="0" y1="388" x2="750" y2="388"/>
		<line class="st3" x1="0" y1="392" x2="750" y2="392"/>
		<line class="st3" x1="0" y1="396" x2="750" y2="396"/>
		<line class="st3" x1="0" y1="400" x2="750" y2="400"/>
		<line class="st3" x1="0" y1="404" x2="750" y2="404"/>
		<line class="st3" x1="0" y1="408" x2="750" y2="408"/>
		<line class="st3" x1="0" y1="412" x2="750" y2="412"/>
		<line class="st3" x1="0" y1="416" x2="750" y2="416"/>
		<line class="st3" x1="0" y1="420" x2="750" y2="420"/>
		<line class="st3" x1="0" y1="424" x2="750" y2="424"/>
		<line class="st3" x1="0" y1="428" x2="750" y2="428"/>
		<line class="st3" x1="0" y1="432" x2="750" y2="432"/>
		<line class="st3" x1="0" y1="436" x2="750" y2="436"/>
		<line class="st3" x1="0" y1="440" x2="750" y2="440"/>
		<line class="st3" x1="0" y1="444" x2="750" y2="444"/>
		<line class="st3" x1="0" y1="448" x2="750" y2="448"/>
		<line class="st3" x1="0" y1="452" x2="750" y2="452"/>
		<line class="st3" x1="0" y1="456" x2="750" y2="456"/>
		<line class="st3" x1="0" y1="460" x2="750" y2="460"/>
		<line class="st3" x1="0" y1="464" x2="750" y2="464"/>
		<line class="st3" x1="0" y1="468" x2="750" y2="468"/>
		<line class="st3" x1="0" y1="472" x2="750" y2="472"/>
		<line class="st3" x1="0" y1="476" x2="750" y2="476"/>
		<line class="st3" x1="0" y1="480" x2="750" y2="480"/>
		<line class="st3" x1="0" y1="484" x2="750" y2="484"/>
		<line class="st3" x1="0" y1="488" x2="750" y2="488"/>
		<line class="st3" x1="0" y1="492" x2="750" y2="492"/>
		<line class="st3" x1="0" y1="496" x2="750" y2="496"/>
		<line class="st3" x1="0" y1="500" x2="750" y2="500"/>
	</g>
</g>
<g id="OBJECTS">
	<g>
		<g>
			<g>
				<g>
					<linearGradient id="SVGID_2_" gradientUnits="userSpaceOnUse" x1="386.7539" y1="241.135" x2="476.7694" y2="194.1073">
						<stop  offset="0" style="stop-color:#E3D4FF"/>
						<stop  offset="0.9946" style="stop-color:#AC85F2"/>
						<stop  offset="1" style="stop-color:#AC85F2"/>
					</linearGradient>
					<polygon class="st4" points="427.5,157.7 405.9,262.7 437.6,275.9 458,266.1 479.8,194.4 					"/>
					<linearGradient id="SVGID_3_" gradientUnits="userSpaceOnUse" x1="421.2368" y1="164.39" x2="433.6608" y2="265.2316">
						<stop  offset="0" style="stop-color:#E3D4FF;stop-opacity:0"/>
						<stop  offset="0.9946" style="stop-color:#AC85F2"/>
					</linearGradient>
					<polygon class="st5" points="407.6,254.4 420.3,260.2 446.8,171.3 427.5,157.7 					"/>
					<polyline class="st6" points="427.5,157.7 479.8,194.4 458,266.1 437.6,275.9 405.9,262.7 					"/>
				</g>
			</g>
			<g>
				<linearGradient id="SVGID_4_" gradientUnits="userSpaceOnUse" x1="433.1974" y1="211.399" x2="440.2288" y2="250.4622">
					<stop  offset="0" style="stop-color:#6821FF"/>
					<stop  offset="1" style="stop-color:#2201A1"/>
				</linearGradient>
				<path class="st7" d="M430.6,201.8c0.7,0.4,1.5,0,1.8-1c0.3-0.9,0-2-0.7-2.4c-0.7-0.4-1.5,0-1.8,1
					C429.6,200.4,429.9,201.4,430.6,201.8z"/>
				<linearGradient id="SVGID_5_" gradientUnits="userSpaceOnUse" x1="437.2398" y1="210.734" x2="444.2943" y2="249.9255">
					<stop  offset="0" style="stop-color:#6821FF"/>
					<stop  offset="1" style="stop-color:#2201A1"/>
				</linearGradient>
				<path class="st8" d="M435.3,204.4c0.7,0.4,1.5,0,1.8-1c0.3-0.9,0-2-0.7-2.4c-0.7-0.4-1.5,0-1.8,1
					C434.3,203,434.6,204,435.3,204.4z"/>
				<linearGradient id="SVGID_6_" gradientUnits="userSpaceOnUse" x1="441.3066" y1="210.0648" x2="448.3858" y2="249.3938">
					<stop  offset="0" style="stop-color:#6821FF"/>
					<stop  offset="1" style="stop-color:#2201A1"/>
				</linearGradient>
				<path class="st9" d="M439.9,207.1c0.7,0.4,1.5,0,1.8-1c0.3-0.9,0-2-0.7-2.4c-0.7-0.4-1.5,0-1.8,1
					C438.9,205.6,439.2,206.7,439.9,207.1z"/>
				<linearGradient id="SVGID_7_" gradientUnits="userSpaceOnUse" x1="445.3979" y1="209.3885" x2="452.5004" y2="248.8463">
					<stop  offset="0" style="stop-color:#6821FF"/>
					<stop  offset="1" style="stop-color:#2201A1"/>
				</linearGradient>
				<path class="st10" d="M444.6,209.7c0.7,0.4,1.5,0,1.8-1c0.3-0.9,0-2-0.7-2.4c-0.7-0.4-1.5,0-1.8,1
					C443.6,208.3,443.9,209.3,444.6,209.7z"/>
				<linearGradient id="SVGID_8_" gradientUnits="userSpaceOnUse" x1="449.5154" y1="208.7076" x2="456.6418" y2="248.2984">
					<stop  offset="0" style="stop-color:#6821FF"/>
					<stop  offset="1" style="stop-color:#2201A1"/>
				</linearGradient>
				<path class="st11" d="M449.3,212.4c0.7,0.4,1.5,0,1.8-1c0.3-0.9,0-2-0.7-2.4c-0.7-0.4-1.5,0-1.8,1
					C448.3,210.9,448.6,212,449.3,212.4z"/>
				<linearGradient id="SVGID_9_" gradientUnits="userSpaceOnUse" x1="453.6609" y1="208.0196" x2="460.8123" y2="247.7496">
					<stop  offset="0" style="stop-color:#6821FF"/>
					<stop  offset="1" style="stop-color:#2201A1"/>
				</linearGradient>
				<path class="st12" d="M454.1,215.1c0.7,0.4,1.5,0,1.8-1c0.3-0.9,0-2-0.7-2.4c-0.7-0.4-1.5,0-1.8,1
					C453,213.6,453.4,214.7,454.1,215.1z"/>
				<linearGradient id="SVGID_10_" gradientUnits="userSpaceOnUse" x1="457.8301" y1="207.3271" x2="465.005" y2="247.1877">
					<stop  offset="0" style="stop-color:#6821FF"/>
					<stop  offset="1" style="stop-color:#2201A1"/>
				</linearGradient>
				<path class="st13" d="M460,214.4c-0.7-0.4-1.5,0-1.8,1c-0.3,0.9,0,2,0.7,2.4c0.7,0.4,1.5,0,1.9-1
					C461,215.9,460.7,214.8,460,214.4z"/>
				<linearGradient id="SVGID_11_" gradientUnits="userSpaceOnUse" x1="429.6456" y1="212.0035" x2="436.6673" y2="251.013">
					<stop  offset="0" style="stop-color:#6821FF"/>
					<stop  offset="1" style="stop-color:#2201A1"/>
				</linearGradient>
				<path class="st14" d="M428.3,209.2c0.7,0.4,1.5,0,1.8-1c0.3-0.9,0-2-0.7-2.4c-0.7-0.4-1.5,0-1.8,1
					C427.3,207.7,427.6,208.8,428.3,209.2z"/>
				<linearGradient id="SVGID_12_" gradientUnits="userSpaceOnUse" x1="433.67" y1="211.3398" x2="440.7162" y2="250.4855">
					<stop  offset="0" style="stop-color:#6821FF"/>
					<stop  offset="1" style="stop-color:#2201A1"/>
				</linearGradient>
				<path class="st15" d="M432.9,211.8c0.7,0.4,1.5,0,1.8-1c0.3-0.9,0-2-0.7-2.4c-0.7-0.4-1.5,0-1.8,1
					C431.9,210.3,432.2,211.4,432.9,211.8z"/>
				<linearGradient id="SVGID_13_" gradientUnits="userSpaceOnUse" x1="437.7185" y1="210.6704" x2="444.7885" y2="249.9479">
					<stop  offset="0" style="stop-color:#6821FF"/>
					<stop  offset="1" style="stop-color:#2201A1"/>
				</linearGradient>
				<path class="st16" d="M437.6,214.5c0.7,0.4,1.5,0,1.8-1c0.3-0.9,0-2-0.7-2.4c-0.7-0.4-1.5,0-1.8,1
					C436.5,213,436.9,214.1,437.6,214.5z"/>
				<linearGradient id="SVGID_14_" gradientUnits="userSpaceOnUse" x1="441.7914" y1="209.9937" x2="448.8866" y2="249.411">
					<stop  offset="0" style="stop-color:#6821FF"/>
					<stop  offset="1" style="stop-color:#2201A1"/>
				</linearGradient>
				<path class="st17" d="M442.2,217.1c0.7,0.4,1.5,0,1.8-1c0.3-0.9,0-2-0.7-2.4c-0.7-0.4-1.5,0-1.8,1
					C441.2,215.7,441.5,216.7,442.2,217.1z"/>
				<linearGradient id="SVGID_15_" gradientUnits="userSpaceOnUse" x1="445.8904" y1="209.3132" x2="453.0087" y2="248.8588">
					<stop  offset="0" style="stop-color:#6821FF"/>
					<stop  offset="1" style="stop-color:#2201A1"/>
				</linearGradient>
				<path class="st18" d="M446.9,219.8c0.7,0.4,1.5,0,1.8-1c0.3-0.9,0-2-0.7-2.4c-0.7-0.4-1.5,0-1.8,1
					C445.9,218.3,446.2,219.4,446.9,219.8z"/>
				<linearGradient id="SVGID_16_" gradientUnits="userSpaceOnUse" x1="450.0172" y1="208.6272" x2="457.1589" y2="248.3034">
					<stop  offset="0" style="stop-color:#6821FF"/>
					<stop  offset="1" style="stop-color:#2201A1"/>
				</linearGradient>
				<path class="st19" d="M451.7,222.5c0.7,0.4,1.5,0,1.8-1c0.3-0.9,0-2-0.7-2.4c-0.7-0.4-1.5,0-1.8,1
					C450.6,221.1,451,222.1,451.7,222.5z"/>
				<linearGradient id="SVGID_17_" gradientUnits="userSpaceOnUse" x1="454.167" y1="207.9322" x2="461.3341" y2="247.7491">
					<stop  offset="0" style="stop-color:#6821FF"/>
					<stop  offset="1" style="stop-color:#2201A1"/>
				</linearGradient>
				<path class="st20" d="M457.5,221.9c-0.7-0.4-1.5,0-1.8,1c-0.3,0.9,0,2,0.7,2.4c0.7,0.4,1.5,0,1.8-1
					C458.6,223.4,458.2,222.3,457.5,221.9z"/>
				<linearGradient id="SVGID_18_" gradientUnits="userSpaceOnUse" x1="426.1051" y1="212.6023" x2="433.1203" y2="251.5755">
					<stop  offset="0" style="stop-color:#6821FF"/>
					<stop  offset="1" style="stop-color:#2201A1"/>
				</linearGradient>
				<path class="st21" d="M426,216.5c0.7,0.4,1.5,0,1.8-1c0.3-0.9,0-2-0.7-2.4c-0.7-0.4-1.5,0-1.8,1C425,215,425.3,216.1,426,216.5z
					"/>
				<linearGradient id="SVGID_19_" gradientUnits="userSpaceOnUse" x1="430.1111" y1="211.9388" x2="437.1487" y2="251.0366">
					<stop  offset="0" style="stop-color:#6821FF"/>
					<stop  offset="1" style="stop-color:#2201A1"/>
				</linearGradient>
				<path class="st22" d="M431.6,215.8c-0.7-0.4-1.5,0-1.8,1c-0.3,0.9,0,2,0.7,2.4c0.7,0.4,1.5,0,1.8-1
					C432.6,217.3,432.3,216.2,431.6,215.8z"/>
				<linearGradient id="SVGID_20_" gradientUnits="userSpaceOnUse" x1="434.142" y1="211.2681" x2="441.204" y2="250.5018">
					<stop  offset="0" style="stop-color:#6821FF"/>
					<stop  offset="1" style="stop-color:#2201A1"/>
				</linearGradient>
				<path class="st23" d="M436.3,218.5c-0.7-0.4-1.5,0-1.8,1c-0.3,0.9,0,2,0.7,2.4c0.7,0.4,1.5,0,1.8-1
					C437.3,219.9,437,218.9,436.3,218.5z"/>
				<linearGradient id="SVGID_21_" gradientUnits="userSpaceOnUse" x1="438.1964" y1="210.5933" x2="445.2819" y2="249.957">
					<stop  offset="0" style="stop-color:#6821FF"/>
					<stop  offset="1" style="stop-color:#2201A1"/>
				</linearGradient>
				<path class="st24" d="M440.9,221.2c-0.7-0.4-1.5,0-1.8,1c-0.3,0.9,0,2,0.7,2.4c0.7,0.4,1.5,0,1.8-1
					C442,222.6,441.6,221.6,440.9,221.2z"/>
				<linearGradient id="SVGID_22_" gradientUnits="userSpaceOnUse" x1="442.2767" y1="209.9108" x2="449.3867" y2="249.4104">
					<stop  offset="0" style="stop-color:#6821FF"/>
					<stop  offset="1" style="stop-color:#2201A1"/>
				</linearGradient>
				<path class="st25" d="M445.6,223.9c-0.7-0.4-1.5,0-1.8,1c-0.3,0.9,0,2,0.7,2.4c0.7,0.4,1.5,0,1.8-1
					C446.7,225.4,446.3,224.3,445.6,223.9z"/>
				<linearGradient id="SVGID_23_" gradientUnits="userSpaceOnUse" x1="446.3846" y1="209.2229" x2="453.5192" y2="248.859">
					<stop  offset="0" style="stop-color:#6821FF"/>
					<stop  offset="1" style="stop-color:#2201A1"/>
				</linearGradient>
				<path class="st26" d="M450.4,226.6c-0.7-0.4-1.5,0-1.8,1c-0.3,0.9,0,2,0.7,2.4c0.7,0.4,1.5,0,1.8-1
					C451.4,228.1,451.1,227,450.4,226.6z"/>
				<linearGradient id="SVGID_24_" gradientUnits="userSpaceOnUse" x1="450.5158" y1="208.5277" x2="457.6752" y2="248.3019">
					<stop  offset="0" style="stop-color:#6821FF"/>
					<stop  offset="1" style="stop-color:#2201A1"/>
				</linearGradient>
				<path class="st27" d="M455.1,229.3c-0.7-0.4-1.5,0-1.8,1c-0.3,0.9,0,2,0.7,2.4c0.7,0.4,1.5,0,1.8-1
					C456.2,230.8,455.8,229.7,455.1,229.3z"/>
				<linearGradient id="SVGID_25_" gradientUnits="userSpaceOnUse" x1="422.5744" y1="213.1931" x2="429.5809" y2="252.1182">
					<stop  offset="0" style="stop-color:#6821FF"/>
					<stop  offset="1" style="stop-color:#2201A1"/>
				</linearGradient>
				<path class="st28" d="M424.7,220.5c-0.7-0.4-1.5,0-1.8,0.9c-0.3,0.9,0,2,0.7,2.4c0.7,0.4,1.5,0,1.8-0.9
					C425.7,221.9,425.4,220.9,424.7,220.5z"/>
				<linearGradient id="SVGID_26_" gradientUnits="userSpaceOnUse" x1="426.5623" y1="212.527" x2="433.5933" y2="251.5877">
					<stop  offset="0" style="stop-color:#6821FF"/>
					<stop  offset="1" style="stop-color:#2201A1"/>
				</linearGradient>
				<path class="st29" d="M429.3,223.1c-0.7-0.4-1.5,0-1.8,1c-0.3,0.9,0,2,0.7,2.4c0.7,0.4,1.5,0,1.8-0.9
					C430.3,224.6,430,223.5,429.3,223.1z"/>
				<linearGradient id="SVGID_27_" gradientUnits="userSpaceOnUse" x1="430.5745" y1="211.8584" x2="437.6284" y2="251.0464">
					<stop  offset="0" style="stop-color:#6821FF"/>
					<stop  offset="1" style="stop-color:#2201A1"/>
				</linearGradient>
				<path class="st30" d="M433.9,225.8c-0.7-0.4-1.5,0-1.8,1c-0.3,0.9,0,2,0.7,2.4c0.7,0.4,1.5,0,1.8-0.9
					C434.9,227.3,434.6,226.2,433.9,225.8z"/>
				<linearGradient id="SVGID_28_" gradientUnits="userSpaceOnUse" x1="434.611" y1="211.1816" x2="441.6891" y2="250.5045">
					<stop  offset="0" style="stop-color:#6821FF"/>
					<stop  offset="1" style="stop-color:#2201A1"/>
				</linearGradient>
				<path class="st31" d="M438.6,228.5c-0.7-0.4-1.5,0-1.8,0.9c-0.3,0.9,0,2,0.7,2.4c0.7,0.4,1.5,0,1.8-0.9
					C439.6,230,439.3,228.9,438.6,228.5z"/>
				<linearGradient id="SVGID_29_" gradientUnits="userSpaceOnUse" x1="438.6732" y1="210.5016" x2="445.7748" y2="249.9546">
					<stop  offset="0" style="stop-color:#6821FF"/>
					<stop  offset="1" style="stop-color:#2201A1"/>
				</linearGradient>
				<path class="st32" d="M443.3,231.3c-0.7-0.4-1.5,0-1.8,0.9c-0.3,0.9,0,2,0.7,2.4c0.7,0.4,1.5,0,1.8-0.9
					C444.3,232.7,444,231.7,443.3,231.3z"/>
				<linearGradient id="SVGID_30_" gradientUnits="userSpaceOnUse" x1="442.7622" y1="209.8139" x2="449.888" y2="249.4014">
					<stop  offset="0" style="stop-color:#6821FF"/>
					<stop  offset="1" style="stop-color:#2201A1"/>
				</linearGradient>
				<path class="st33" d="M448,234c-0.7-0.4-1.5,0-1.8,0.9c-0.3,0.9,0,2,0.7,2.4c0.7,0.4,1.5,0,1.8-0.9
					C449,235.5,448.7,234.4,448,234z"/>
				<linearGradient id="SVGID_31_" gradientUnits="userSpaceOnUse" x1="446.8751" y1="209.1186" x2="454.0258" y2="248.8447">
					<stop  offset="0" style="stop-color:#6821FF"/>
					<stop  offset="1" style="stop-color:#2201A1"/>
				</linearGradient>
				<path class="st34" d="M452.7,236.8c-0.7-0.4-1.5,0-1.8,0.9c-0.3,0.9,0,2,0.7,2.4c0.7,0.4,1.5,0,1.8-0.9
					C453.7,238.3,453.4,237.2,452.7,236.8z"/>
				<linearGradient id="SVGID_32_" gradientUnits="userSpaceOnUse" x1="419.0532" y1="213.776" x2="426.0518" y2="252.6573">
					<stop  offset="0" style="stop-color:#6821FF"/>
					<stop  offset="1" style="stop-color:#2201A1"/>
				</linearGradient>
				<path class="st35" d="M422.4,227.8c-0.7-0.4-1.5,0-1.8,0.9c-0.3,0.9,0,2,0.7,2.4c0.7,0.4,1.5,0,1.8-0.9
					C423.4,229.2,423.1,228.2,422.4,227.8z"/>
				<linearGradient id="SVGID_33_" gradientUnits="userSpaceOnUse" x1="423.0229" y1="213.1082" x2="430.0461" y2="252.1261">
					<stop  offset="0" style="stop-color:#6821FF"/>
					<stop  offset="1" style="stop-color:#2201A1"/>
				</linearGradient>
				<path class="st36" d="M427,230.4c-0.7-0.4-1.5,0-1.8,0.9c-0.3,0.9,0,2,0.7,2.4c0.7,0.4,1.5,0,1.8-0.9
					C428,231.9,427.7,230.8,427,230.4z"/>
				<linearGradient id="SVGID_34_" gradientUnits="userSpaceOnUse" x1="427.018" y1="212.4391" x2="434.0643" y2="251.5856">
					<stop  offset="0" style="stop-color:#6821FF"/>
					<stop  offset="1" style="stop-color:#2201A1"/>
				</linearGradient>
				<path class="st37" d="M431.6,233.2c-0.7-0.4-1.5,0-1.8,0.9c-0.3,0.9,0,2,0.7,2.4c0.7,0.4,1.5,0,1.8-0.9
					C432.6,234.6,432.3,233.6,431.6,233.2z"/>
				<linearGradient id="SVGID_35_" gradientUnits="userSpaceOnUse" x1="431.036" y1="211.7604" x2="438.1068" y2="251.0429">
					<stop  offset="0" style="stop-color:#6821FF"/>
					<stop  offset="1" style="stop-color:#2201A1"/>
				</linearGradient>
				<path class="st38" d="M436.2,235.9c-0.7-0.4-1.5,0-1.8,0.9c-0.3,0.9,0,2,0.7,2.4c0.7,0.4,1.5,0,1.8-0.9
					C437.2,237.4,436.9,236.3,436.2,235.9z"/>
				<linearGradient id="SVGID_36_" gradientUnits="userSpaceOnUse" x1="435.0789" y1="211.0777" x2="442.1738" y2="250.4937">
					<stop  offset="0" style="stop-color:#6821FF"/>
					<stop  offset="1" style="stop-color:#2201A1"/>
				</linearGradient>
				<path class="st39" d="M440.9,238.6c-0.7-0.4-1.5,0-1.8,0.9c-0.3,0.9,0,2,0.7,2.4c0.7,0.4,1.5,0,1.8-0.9
					C441.9,240.1,441.6,239,440.9,238.6z"/>
				<linearGradient id="SVGID_37_" gradientUnits="userSpaceOnUse" x1="439.1494" y1="210.387" x2="446.2689" y2="249.9397">
					<stop  offset="0" style="stop-color:#6821FF"/>
					<stop  offset="1" style="stop-color:#2201A1"/>
				</linearGradient>
				<path class="st40" d="M445.6,241.4c-0.7-0.4-1.5,0-1.8,0.9c-0.3,0.9,0,2,0.7,2.4c0.7,0.4,1.5,0,1.8-0.9
					C446.6,242.9,446.3,241.8,445.6,241.4z"/>
				<linearGradient id="SVGID_38_" gradientUnits="userSpaceOnUse" x1="443.244" y1="209.6939" x2="450.3875" y2="249.3797">
					<stop  offset="0" style="stop-color:#6821FF"/>
					<stop  offset="1" style="stop-color:#2201A1"/>
				</linearGradient>
				<path class="st41" d="M450.3,244.2c-0.7-0.4-1.5,0-1.8,0.9c-0.3,0.9,0,2,0.7,2.4c0.7,0.4,1.5,0,1.8-0.9
					C451.3,245.7,451,244.6,450.3,244.2z"/>
			</g>
			<g>
				<linearGradient id="SVGID_39_" gradientUnits="userSpaceOnUse" x1="320.969" y1="141.1469" x2="389.78" y2="233.2914">
					<stop  offset="0" style="stop-color:#FFFFFF"/>
					<stop  offset="0.9946" style="stop-color:#C6A6FF"/>
				</linearGradient>
				<polygon class="st42" points="389.1,235.2 287.5,231.1 284.1,229.6 309.6,134.7 416.4,131.2 418.2,134.2 				"/>
				<linearGradient id="SVGID_40_" gradientUnits="userSpaceOnUse" x1="310.6548" y1="268.8506" x2="401.0432" y2="219.7717">
					<stop  offset="0" style="stop-color:#E3D4FF"/>
					<stop  offset="0.9946" style="stop-color:#9D71EB"/>
				</linearGradient>
				<polygon class="st43" points="418,251.1 311,245.9 293.6,237.5 397.9,242 				"/>
				<linearGradient id="SVGID_41_" gradientUnits="userSpaceOnUse" x1="299.6926" y1="258.2274" x2="382.3134" y2="213.3661">
					<stop  offset="0" style="stop-color:#E3D4FF"/>
					<stop  offset="0.9946" style="stop-color:#9D71EB"/>
				</linearGradient>
				<polygon class="st44" points="397.9,242 293.6,237.5 284.1,229.6 386.8,233.4 				"/>
				<g>
					<linearGradient id="SVGID_42_" gradientUnits="userSpaceOnUse" x1="294.5316" y1="182.5174" x2="404.0167" y2="182.5174">
						<stop  offset="0" style="stop-color:#E3D4FF"/>
						<stop  offset="0.9946" style="stop-color:#9D71EB"/>
					</linearGradient>
					<polygon class="st45" points="313.6,147 294.5,217.7 382.3,220.2 404,144.8 					"/>
					<g>
						<g>
							<defs>
								<polygon id="SVGID_43_" points="315.9,151.7 298.7,215.3 381.2,217.5 400.6,150 								"/>
							</defs>
							<clipPath id="SVGID_44_">
								<use xlink:href="#SVGID_43_"  style="overflow:visible;"/>
							</clipPath>
							<g class="st46">
								<polygon class="st47" points="316.1,152 305.1,193.5 316.1,193.5 327.4,151.6 								"/>
								<polygon class="st48" points="327.4,151.6 316.1,193.5 327.4,193.6 339,151.2 								"/>
								<polygon class="st49" points="339,151.2 327.4,193.6 339,193.6 350.8,150.8 								"/>
								<polygon class="st50" points="350.8,150.8 339,193.6 350.8,193.7 362.8,150.4 								"/>
								<polygon class="st51" points="362.8,150.4 350.8,193.7 362.8,193.8 375.1,150 								"/>
								<polygon class="st52" points="375.1,150 362.8,193.8 375.1,193.8 387.7,149.6 								"/>
								<polygon class="st53" points="387.7,149.6 375.1,193.8 387.7,193.9 400.6,149.1 								"/>
								<polygon class="st53" points="305.1,193.5 303.2,200.5 314.2,200.7 316.1,193.5 								"/>
								<polygon class="st54" points="316.1,193.5 314.2,200.7 318.8,200.7 325.5,200.8 327.4,193.6 								"/>
								<polygon class="st51" points="327.4,193.6 325.5,200.8 337,200.9 339,193.6 								"/>
								<polygon class="st54" points="339,193.6 337,200.9 341.2,201 348.7,201.1 350.8,193.7 								"/>
								<polygon class="st49" points="350.8,193.7 348.7,201.1 356.7,201.1 360.7,201.2 362.8,193.8 								"/>
								<polygon class="st54" points="362.8,193.8 360.7,201.2 373,201.3 375.1,193.8 								"/>
								<polygon class="st55" points="375.1,193.8 373,201.3 378,201.4 385.5,201.5 387.7,193.9 								"/>
								<polygon class="st56" points="314.2,200.7 303.2,200.5 299.3,215 314.9,215.4 318.8,200.7 								"/>
								<polygon class="st55" points="337,200.9 325.5,200.8 318.8,200.7 314.9,215.4 337.1,216 341.2,201 								"/>
								<polygon class="st57" points="348.7,201.1 341.2,201 337.1,216 352.4,216.4 356.7,201.1 								"/>
								<polygon class="st54" points="360.7,201.2 356.7,201.1 352.4,216.4 368.6,216.8 373,201.3 								"/>
								<polygon class="st54" points="378,201.4 373.6,216.9 381,217.1 385.5,201.5 								"/>
								<polygon class="st47" points="373,201.3 368.6,216.8 373.6,216.9 378,201.4 								"/>
							</g>
						</g>
						<polygon class="st6" points="315.9,151.7 298.7,215.3 381.2,217.5 400.6,150 						"/>
					</g>
					<line class="st6" x1="313.6" y1="147" x2="315.9" y2="151.7"/>
					<line class="st6" x1="298.7" y1="215.3" x2="294.5" y2="217.7"/>
					<line class="st6" x1="382.3" y1="220.2" x2="381.2" y2="217.5"/>
					<line class="st6" x1="404" y1="144.8" x2="400.6" y2="150"/>
					<g>
						<line class="st6" x1="302.7" y1="200.5" x2="385.9" y2="201.3"/>
						<line class="st6" x1="305.1" y1="193.5" x2="387.7" y2="193.9"/>
						<line class="st6" x1="327.4" y1="151.6" x2="314.2" y2="200.6"/>
						<line class="st6" x1="339" y1="151.3" x2="325.5" y2="200.6"/>
						<line class="st6" x1="350.7" y1="150.8" x2="337" y2="200.6"/>
						<line class="st6" x1="362.7" y1="150.8" x2="348.7" y2="200.9"/>
						<line class="st6" x1="375" y1="150.5" x2="360.8" y2="201"/>
						<line class="st6" x1="387.5" y1="150.3" x2="368.6" y2="216.8"/>
						<line class="st6" x1="378" y1="201.4" x2="373.6" y2="216.9"/>
						<line class="st6" x1="356.8" y1="201" x2="352.4" y2="216.4"/>
						<line class="st6" x1="341.3" y1="200.9" x2="337.1" y2="216"/>
						<line class="st6" x1="318.7" y1="200.7" x2="314.9" y2="215.4"/>
					</g>
				</g>
				<g>
					<g>
						<linearGradient id="SVGID_45_" gradientUnits="userSpaceOnUse" x1="416.7386" y1="189.6822" x2="439.0572" y2="216.9605">
							<stop  offset="0" style="stop-color:#E3D4FF"/>
							<stop  offset="0.9946" style="stop-color:#AC85F2"/>
							<stop  offset="1" style="stop-color:#AC85F2"/>
						</linearGradient>
						<polygon class="st58" points="429.1,134.9 429.1,134.9 397.9,242 397.9,242 418,251.1 447.5,151.9 						"/>
						<linearGradient id="SVGID_46_" gradientUnits="userSpaceOnUse" x1="382.0012" y1="166.5264" x2="428.9009" y2="199.2187">
							<stop  offset="0" style="stop-color:#E3D4FF"/>
							<stop  offset="0.9946" style="stop-color:#AC85F2"/>
							<stop  offset="1" style="stop-color:#AC85F2"/>
						</linearGradient>
						<polygon class="st59" points="416.4,131.2 386.8,233.4 397.9,242 429.1,134.9 						"/>
					</g>
					<polygon class="st6" points="429.1,134.9 447.5,151.9 418,251.1 397.9,242 386.8,233.4 416.4,131.2 					"/>
				</g>
				<linearGradient id="SVGID_47_" gradientUnits="userSpaceOnUse" x1="333.5452" y1="222.6584" x2="309.4557" y2="187.3844">
					<stop  offset="0" style="stop-color:#FFFFFF"/>
					<stop  offset="1" style="stop-color:#FFFFFF;stop-opacity:0.3"/>
				</linearGradient>
				<polygon class="st60" points="313.5,215.7 344,216.5 311.5,168.1 302.9,199.8 				"/>
				<linearGradient id="SVGID_48_" gradientUnits="userSpaceOnUse" x1="390.7093" y1="212.6133" x2="356.941" y2="153.2497">
					<stop  offset="0" style="stop-color:#FFFFFF"/>
					<stop  offset="1" style="stop-color:#FFFFFF;stop-opacity:0.3"/>
				</linearGradient>
				<polygon class="st61" points="368.7,150.6 339.2,151.3 381.9,215 390.9,183.8 				"/>
			</g>
			<g>
				<linearGradient id="SVGID_49_" gradientUnits="userSpaceOnUse" x1="343.4068" y1="264.8493" x2="345.9372" y2="237.5215">
					<stop  offset="0" style="stop-color:#FFFFFF"/>
					<stop  offset="0.9946" style="stop-color:#C6A6FF"/>
				</linearGradient>
				<polygon class="st62" points="388.4,255 304.9,251 300.1,249.7 302.2,237.9 389.1,241.7 390.1,243.1 				"/>
				<g>
					<linearGradient id="SVGID_50_" gradientUnits="userSpaceOnUse" x1="393.9803" y1="254.0104" x2="479.0266" y2="209.5788">
						<stop  offset="0" style="stop-color:#E3D4FF"/>
						<stop  offset="0.9946" style="stop-color:#AC85F2"/>
						<stop  offset="1" style="stop-color:#AC85F2"/>
					</linearGradient>
					<polygon class="st63" points="389.1,241.7 386.7,254.2 405.9,262.7 408.4,250.6 					"/>
					<linearGradient id="SVGID_51_" gradientUnits="userSpaceOnUse" x1="388.729" y1="165.6022" x2="401.4759" y2="269.0649">
						<stop  offset="0" style="stop-color:#E3D4FF;stop-opacity:0"/>
						<stop  offset="0.9946" style="stop-color:#AC85F2"/>
					</linearGradient>
					<polygon class="st64" points="408.4,250.6 389.2,241.7 389,242.3 400.1,251 407.6,254.4 					"/>
					<polyline class="st6" points="405.9,262.7 386.7,254.2 389.1,241.7 408.4,250.6 410.9,250.7 					"/>
				</g>
			</g>
			<linearGradient id="SVGID_52_" gradientUnits="userSpaceOnUse" x1="315.2619" y1="150.6583" x2="315.2619" y2="150.6583">
				<stop  offset="0" style="stop-color:#E3D4FF"/>
				<stop  offset="0.9946" style="stop-color:#9D71EB"/>
			</linearGradient>
			<path class="st65" d="M315.3,150.7"/>
			<linearGradient id="SVGID_53_" gradientUnits="userSpaceOnUse" x1="300.1121" y1="262.8186" x2="437.6295" y2="262.8186">
				<stop  offset="0" style="stop-color:#E3D4FF"/>
				<stop  offset="0.9946" style="stop-color:#9D71EB"/>
			</linearGradient>
			<polygon class="st66" points="386.7,254.2 300.1,249.7 345,269.9 437.6,275.9 			"/>
			<line class="st6" x1="429.1" y1="134.9" x2="397.9" y2="242"/>
		</g>
	</g>
</g>
</svg>
