<?xml version="1.0" encoding="utf-8"?>
<!-- Generator: Adobe Illustrator 22.0.1, SVG Export Plug-In . SVG Version: 6.00 Build 0)  -->
<svg version="1.1" xmlns="http://www.w3.org/2000/svg" xmlns:xlink="http://www.w3.org/1999/xlink" x="0px" y="0px"
	 viewBox="0 0 750 500" style="enable-background:new 0 0 750 500;" xml:space="preserve">
<style type="text/css">
	.st0{fill:url(#SVGID_1_);}
	.st1{opacity:0.7;}
	.st2{fill:none;stroke:#FFFFFF;stroke-width:0.25;stroke-miterlimit:10;}
</style>
<g id="BACKGROUND">
	<radialGradient id="SVGID_1_" cx="373" cy="568" r="613.0303" gradientUnits="userSpaceOnUse">
		<stop  offset="0" style="stop-color:#41E8AE"/>
		<stop  offset="0.4946" style="stop-color:#2D71D4"/>
		<stop  offset="1" style="stop-color:#4809BA"/>
	</radialGradient>
	<rect x="0" class="st0" width="750" height="500"/>
	<g class="st1">
		<line class="st2" x1="0" y1="0" x2="750" y2="0"/>
		<line class="st2" x1="0" y1="4" x2="750" y2="4"/>
		<line class="st2" x1="0" y1="8" x2="750" y2="8"/>
		<line class="st2" x1="0" y1="12" x2="750" y2="12"/>
		<line class="st2" x1="0" y1="16" x2="750" y2="16"/>
		<line class="st2" x1="0" y1="20" x2="750" y2="20"/>
		<line class="st2" x1="0" y1="24" x2="750" y2="24"/>
		<line class="st2" x1="0" y1="28" x2="750" y2="28"/>
		<line class="st2" x1="0" y1="32" x2="750" y2="32"/>
		<line class="st2" x1="0" y1="36" x2="750" y2="36"/>
		<line class="st2" x1="0" y1="40" x2="750" y2="40"/>
		<line class="st2" x1="0" y1="44" x2="750" y2="44"/>
		<line class="st2" x1="0" y1="48" x2="750" y2="48"/>
		<line class="st2" x1="0" y1="52" x2="750" y2="52"/>
		<line class="st2" x1="0" y1="56" x2="750" y2="56"/>
		<line class="st2" x1="0" y1="60" x2="750" y2="60"/>
		<line class="st2" x1="0" y1="64" x2="750" y2="64"/>
		<line class="st2" x1="0" y1="68" x2="750" y2="68"/>
		<line class="st2" x1="0" y1="72" x2="750" y2="72"/>
		<line class="st2" x1="0" y1="76" x2="750" y2="76"/>
		<line class="st2" x1="0" y1="80" x2="750" y2="80"/>
		<line class="st2" x1="0" y1="84" x2="750" y2="84"/>
		<line class="st2" x1="0" y1="88" x2="750" y2="88"/>
		<line class="st2" x1="0" y1="92" x2="750" y2="92"/>
		<line class="st2" x1="0" y1="96" x2="750" y2="96"/>
		<line class="st2" x1="0" y1="100" x2="750" y2="100"/>
		<line class="st2" x1="0" y1="104" x2="750" y2="104"/>
		<line class="st2" x1="0" y1="108" x2="750" y2="108"/>
		<line class="st2" x1="0" y1="112" x2="750" y2="112"/>
		<line class="st2" x1="0" y1="116" x2="750" y2="116"/>
		<line class="st2" x1="0" y1="120" x2="750" y2="120"/>
		<line class="st2" x1="0" y1="124" x2="750" y2="124"/>
		<line class="st2" x1="0" y1="128" x2="750" y2="128"/>
		<line class="st2" x1="0" y1="132" x2="750" y2="132"/>
		<line class="st2" x1="0" y1="136" x2="750" y2="136"/>
		<line class="st2" x1="0" y1="140" x2="750" y2="140"/>
		<line class="st2" x1="0" y1="144" x2="750" y2="144"/>
		<line class="st2" x1="0" y1="148" x2="750" y2="148"/>
		<line class="st2" x1="0" y1="152" x2="750" y2="152"/>
		<line class="st2" x1="0" y1="156" x2="750" y2="156"/>
		<line class="st2" x1="0" y1="160" x2="750" y2="160"/>
		<line class="st2" x1="0" y1="164" x2="750" y2="164"/>
		<line class="st2" x1="0" y1="168" x2="750" y2="168"/>
		<line class="st2" x1="0" y1="172" x2="750" y2="172"/>
		<line class="st2" x1="0" y1="176" x2="750" y2="176"/>
		<line class="st2" x1="0" y1="180" x2="750" y2="180"/>
		<line class="st2" x1="0" y1="184" x2="750" y2="184"/>
		<line class="st2" x1="0" y1="188" x2="750" y2="188"/>
		<line class="st2" x1="0" y1="192" x2="750" y2="192"/>
		<line class="st2" x1="0" y1="196" x2="750" y2="196"/>
		<line class="st2" x1="0" y1="200" x2="750" y2="200"/>
		<line class="st2" x1="0" y1="204" x2="750" y2="204"/>
		<line class="st2" x1="0" y1="208" x2="750" y2="208"/>
		<line class="st2" x1="0" y1="212" x2="750" y2="212"/>
		<line class="st2" x1="0" y1="216" x2="750" y2="216"/>
		<line class="st2" x1="0" y1="220" x2="750" y2="220"/>
		<line class="st2" x1="0" y1="224" x2="750" y2="224"/>
		<line class="st2" x1="0" y1="228" x2="750" y2="228"/>
		<line class="st2" x1="0" y1="232" x2="750" y2="232"/>
		<line class="st2" x1="0" y1="236" x2="750" y2="236"/>
		<line class="st2" x1="0" y1="240" x2="750" y2="240"/>
		<line class="st2" x1="0" y1="244" x2="750" y2="244"/>
		<line class="st2" x1="0" y1="248" x2="750" y2="248"/>
		<line class="st2" x1="0" y1="252" x2="750" y2="252"/>
		<line class="st2" x1="0" y1="256" x2="750" y2="256"/>
		<line class="st2" x1="0" y1="260" x2="750" y2="260"/>
		<line class="st2" x1="0" y1="264" x2="750" y2="264"/>
		<line class="st2" x1="0" y1="268" x2="750" y2="268"/>
		<line class="st2" x1="0" y1="272" x2="750" y2="272"/>
		<line class="st2" x1="0" y1="276" x2="750" y2="276"/>
		<line class="st2" x1="0" y1="280" x2="750" y2="280"/>
		<line class="st2" x1="0" y1="284" x2="750" y2="284"/>
		<line class="st2" x1="0" y1="288" x2="750" y2="288"/>
		<line class="st2" x1="0" y1="292" x2="750" y2="292"/>
		<line class="st2" x1="0" y1="296" x2="750" y2="296"/>
		<line class="st2" x1="0" y1="300" x2="750" y2="300"/>
		<line class="st2" x1="0" y1="304" x2="750" y2="304"/>
		<line class="st2" x1="0" y1="308" x2="750" y2="308"/>
		<line class="st2" x1="0" y1="312" x2="750" y2="312"/>
		<line class="st2" x1="0" y1="316" x2="750" y2="316"/>
		<line class="st2" x1="0" y1="320" x2="750" y2="320"/>
		<line class="st2" x1="0" y1="324" x2="750" y2="324"/>
		<line class="st2" x1="0" y1="328" x2="750" y2="328"/>
		<line class="st2" x1="0" y1="332" x2="750" y2="332"/>
		<line class="st2" x1="0" y1="336" x2="750" y2="336"/>
		<line class="st2" x1="0" y1="340" x2="750" y2="340"/>
		<line class="st2" x1="0" y1="344" x2="750" y2="344"/>
		<line class="st2" x1="0" y1="348" x2="750" y2="348"/>
		<line class="st2" x1="0" y1="352" x2="750" y2="352"/>
		<line class="st2" x1="0" y1="356" x2="750" y2="356"/>
		<line class="st2" x1="0" y1="360" x2="750" y2="360"/>
		<line class="st2" x1="0" y1="364" x2="750" y2="364"/>
		<line class="st2" x1="0" y1="368" x2="750" y2="368"/>
		<line class="st2" x1="0" y1="372" x2="750" y2="372"/>
		<line class="st2" x1="0" y1="376" x2="750" y2="376"/>
		<line class="st2" x1="0" y1="380" x2="750" y2="380"/>
		<line class="st2" x1="0" y1="384" x2="750" y2="384"/>
		<line class="st2" x1="0" y1="388" x2="750" y2="388"/>
		<line class="st2" x1="0" y1="392" x2="750" y2="392"/>
		<line class="st2" x1="0" y1="396" x2="750" y2="396"/>
		<line class="st2" x1="0" y1="400" x2="750" y2="400"/>
		<line class="st2" x1="0" y1="404" x2="750" y2="404"/>
		<line class="st2" x1="0" y1="408" x2="750" y2="408"/>
		<line class="st2" x1="0" y1="412" x2="750" y2="412"/>
		<line class="st2" x1="0" y1="416" x2="750" y2="416"/>
		<line class="st2" x1="0" y1="420" x2="750" y2="420"/>
		<line class="st2" x1="0" y1="424" x2="750" y2="424"/>
		<line class="st2" x1="0" y1="428" x2="750" y2="428"/>
		<line class="st2" x1="0" y1="432" x2="750" y2="432"/>
		<line class="st2" x1="0" y1="436" x2="750" y2="436"/>
		<line class="st2" x1="0" y1="440" x2="750" y2="440"/>
		<line class="st2" x1="0" y1="444" x2="750" y2="444"/>
		<line class="st2" x1="0" y1="448" x2="750" y2="448"/>
		<line class="st2" x1="0" y1="452" x2="750" y2="452"/>
		<line class="st2" x1="0" y1="456" x2="750" y2="456"/>
		<line class="st2" x1="0" y1="460" x2="750" y2="460"/>
		<line class="st2" x1="0" y1="464" x2="750" y2="464"/>
		<line class="st2" x1="0" y1="468" x2="750" y2="468"/>
		<line class="st2" x1="0" y1="472" x2="750" y2="472"/>
		<line class="st2" x1="0" y1="476" x2="750" y2="476"/>
		<line class="st2" x1="0" y1="480" x2="750" y2="480"/>
		<line class="st2" x1="0" y1="484" x2="750" y2="484"/>
		<line class="st2" x1="0" y1="488" x2="750" y2="488"/>
		<line class="st2" x1="0" y1="492" x2="750" y2="492"/>
		<line class="st2" x1="0" y1="496" x2="750" y2="496"/>
		<line class="st2" x1="0" y1="500" x2="750" y2="500"/>
	</g>
</g>
<g id="OBJECTS">
</g>
</svg>
